<?xml version="1.0" encoding="UTF-8"?>
<svg width="124px" height="67px" viewBox="0 0 124 67" version="1.1" xmlns="http://www.w3.org/2000/svg" xmlns:xlink="http://www.w3.org/1999/xlink">
    <!-- Generator: sketchtool 41 (35326) - http://www.bohemiancoding.com/sketch -->
    <title>90663D41-6F31-45D8-9072-A3CE3E18A2C8</title>
    <desc>Created with sketchtool.</desc>
    <defs>
        <polygon id="path-1" points="0 66 123.275 66 123.275 0 0 0"></polygon>
    </defs>
    <g id="Page-1" stroke="none" stroke-width="1" fill="none" fill-rule="evenodd">
        <g id="aetm-DIDYOUKNOW-illus" transform="translate(-195.000000, -863.000000)">
            <g id="DYK-illu7" transform="translate(195.000000, 863.000000)">
                <path d="M53.2751,27.6123 L75.0751,30.0673" id="Stroke-1" stroke="#FEFEFE" stroke-linecap="round" stroke-linejoin="round"></path>
                <path d="M53.0271,29.8148 L74.8271,32.2698" id="Stroke-2" stroke="#FEFEFE" stroke-linecap="round" stroke-linejoin="round"></path>
                <path d="M64.2569,28.1132 L66.3849,9.2202" id="Stroke-3" stroke="#FEFEFE" stroke-linejoin="round"></path>
                <g id="Group-37">
                    <path d="M73.2219,18.592 C72.7109,23.127 68.2929,29.304 63.7599,28.793 C59.2269,28.283 56.2929,21.278 56.8039,16.743 C57.3149,12.208 61.4039,8.947 65.9379,9.457 C70.4709,9.968 73.7329,14.057 73.2219,18.592 Z" id="Stroke-4" stroke="#FEFEFE" stroke-linecap="round" stroke-linejoin="round"></path>
                    <path d="M52.8699,27.5667 C50.7309,23.2427 49.3799,20.4987 49.8909,15.9647 C50.4009,11.4297 54.4909,8.1677 59.0239,8.6787 C60.1399,8.8037 61.1779,9.1477 62.1029,9.6607" id="Stroke-6" stroke="#FEFEFE" stroke-linecap="round" stroke-linejoin="round"></path>
                    <path d="M74.6698,30.0218 C77.7168,26.2818 79.7498,23.9188 80.2598,19.3848 C80.7708,14.8498 77.5088,10.7598 72.9758,10.2498 C71.8598,10.1238 70.7718,10.2288 69.7558,10.5228" id="Stroke-8" stroke="#FEFEFE" stroke-linecap="round" stroke-linejoin="round"></path>
                    <path d="M67.3667,0.5 L66.7117,6.313" id="Stroke-10" stroke="#FEFEFE" stroke-linecap="round" stroke-linejoin="round"></path>
                    <path d="M64.9412,2.4345 L69.3012,2.9255" id="Stroke-12" stroke="#FEFEFE" stroke-linecap="round" stroke-linejoin="round"></path>
                    <path d="M73.0421,63.3062 C73.0421,64.5172 72.0591,65.5002 70.8481,65.5002 L47.4481,65.5002 C46.2371,65.5002 45.2541,64.5172 45.2541,63.3062 L45.2541,34.0562 C45.2541,32.8452 46.2371,31.8622 47.4481,31.8622 L70.8481,31.8622 C72.0591,31.8622 73.0421,32.8452 73.0421,34.0562 L73.0421,63.3062 Z" id="Stroke-14" stroke="#FEFEFE" stroke-linecap="round" stroke-linejoin="round"></path>
                    <mask id="mask-2" fill="white">
                        <use xlink:href="#path-1"></use>
                    </mask>
                    <g id="Clip-17"></g>
                    <polygon id="Stroke-16" stroke="#FEFEFE" stroke-linecap="round" stroke-linejoin="round" mask="url(#mask-2)" points="48.257 60.149 70.039 60.149 70.039 34.546 48.257 34.546"></polygon>
                    <path d="M57.6857,62.575 L60.6107,62.575" id="Stroke-18" stroke="#FEFEFE" stroke-linecap="round" stroke-linejoin="round" mask="url(#mask-2)"></path>
                    <path d="M16.2421,56.7309 C16.2421,57.4169 15.6851,57.9739 14.9991,57.9739 L1.7431,57.9739 C1.0571,57.9739 0.5001,57.4169 0.5001,56.7309 L0.5001,40.1599 C0.5001,39.4739 1.0571,38.9179 1.7431,38.9179 L14.9991,38.9179 C15.6851,38.9179 16.2421,39.4739 16.2421,40.1599 L16.2421,56.7309 Z" id="Stroke-19" stroke="#FEFEFE" stroke-linecap="round" stroke-linejoin="round" mask="url(#mask-2)"></path>
                    <polygon id="Stroke-20" stroke="#FEFEFE" stroke-linecap="round" stroke-linejoin="round" mask="url(#mask-2)" points="2.201 54.942 14.541 54.942 14.541 40.437 2.201 40.437"></polygon>
                    <path d="M7.5425,56.3166 L9.1995,56.3166" id="Stroke-21" stroke="#FEFEFE" stroke-linecap="round" stroke-linejoin="round" mask="url(#mask-2)"></path>
                    <path d="M96.7693,57.4456 C96.7693,58.2736 96.0973,58.9456 95.2693,58.9456 L79.2693,58.9456 C78.4413,58.9456 77.7693,58.2736 77.7693,57.4456 L77.7693,37.4456 C77.7693,36.6176 78.4413,35.9456 79.2693,35.9456 L95.2693,35.9456 C96.0973,35.9456 96.7693,36.6176 96.7693,37.4456 L96.7693,57.4456 Z" id="Stroke-22" stroke="#FEFEFE" stroke-linecap="round" stroke-linejoin="round" mask="url(#mask-2)"></path>
                    <path id="Stroke-23" stroke="#FEFEFE" stroke-linecap="round" stroke-linejoin="round" mask="url(#mask-2)"></path>
                    <path d="M88.2693,56.9456 L86.2693,56.9456" id="Stroke-24" stroke="#FEFEFE" stroke-linecap="round" stroke-linejoin="round" mask="url(#mask-2)"></path>
                    <polygon id="Stroke-25" stroke="#FEFEFE" stroke-linecap="round" stroke-linejoin="round" mask="url(#mask-2)" points="80.769 54.946 93.769 54.946 93.769 39.946 80.769 39.946"></polygon>
                    <path d="M103.1441,57.9456 C102.3881,57.9456 101.7741,57.3326 101.7741,56.5756 L101.7741,41.9676 C101.7741,41.2116 102.3881,40.5976 103.1441,40.5976 L121.4051,40.5976 C122.1611,40.5976 122.7741,41.2116 122.7741,41.9676 L122.7741,56.5756 C122.7741,57.3326 122.1611,57.9456 121.4051,57.9456 L103.1441,57.9456 Z" id="Stroke-26" stroke="#FEFEFE" stroke-linecap="round" stroke-linejoin="round" mask="url(#mask-2)"></path>
                    <path id="Stroke-27" stroke="#FEFEFE" stroke-linecap="round" stroke-linejoin="round" mask="url(#mask-2)"></path>
                    <path d="M103.6006,50.1847 L103.6006,48.3587" id="Stroke-28" stroke="#FEFEFE" stroke-linecap="round" stroke-linejoin="round" mask="url(#mask-2)"></path>
                    <polygon id="Stroke-29" stroke="#FEFEFE" stroke-linecap="round" stroke-linejoin="round" mask="url(#mask-2)" points="105.427 55.207 119.123 55.207 119.123 43.337 105.427 43.337"></polygon>
                    <path d="M39.8911,57.4456 C39.8911,58.2736 39.2191,58.9456 38.3911,58.9456 L22.3911,58.9456 C21.5631,58.9456 20.8911,58.2736 20.8911,57.4456 L20.8911,37.4456 C20.8911,36.6176 21.5631,35.9456 22.3911,35.9456 L38.3911,35.9456 C39.2191,35.9456 39.8911,36.6176 39.8911,37.4456 L39.8911,57.4456 Z" id="Stroke-30" stroke="#FEFEFE" stroke-linecap="round" stroke-linejoin="round" mask="url(#mask-2)"></path>
                    <path d="M29.3911,56.9456 L31.3911,56.9456" id="Stroke-31" stroke="#FEFEFE" stroke-linecap="round" stroke-linejoin="round" mask="url(#mask-2)"></path>
                    <polygon id="Stroke-32" stroke="#FEFEFE" stroke-linecap="round" stroke-linejoin="round" mask="url(#mask-2)" points="22.891 54.946 37.891 54.946 37.891 37.946 22.891 37.946"></polygon>
                    <path d="M25.3911,40.9456 L35.3911,40.9456" id="Stroke-33" stroke="#FEFEFE" stroke-linecap="round" stroke-linejoin="round" mask="url(#mask-2)"></path>
                    <path d="M25.3911,43.9456 L35.3911,43.9456" id="Stroke-34" stroke="#FEFEFE" stroke-linecap="round" stroke-linejoin="round" mask="url(#mask-2)"></path>
                    <path d="M25.3911,46.9456 L35.3911,46.9456" id="Stroke-35" stroke="#FEFEFE" stroke-linecap="round" stroke-linejoin="round" mask="url(#mask-2)"></path>
                    <path d="M25.3911,49.9456 L30.3911,49.9456" id="Stroke-36" stroke="#FEFEFE" stroke-linecap="round" stroke-linejoin="round" mask="url(#mask-2)"></path>
                </g>
            </g>
        </g>
    </g>
</svg>