<?xml version="1.0" encoding="UTF-8"?>
<svg width="149px" height="87px" viewBox="0 0 149 87" version="1.1" xmlns="http://www.w3.org/2000/svg" xmlns:xlink="http://www.w3.org/1999/xlink">
    <!-- Generator: sketchtool 41 (35326) - http://www.bohemiancoding.com/sketch -->
    <title>017C563D-64AE-426B-BBD8-2F6155C6F6F7</title>
    <desc>Created with sketchtool.</desc>
    <defs>
        <path d="M16,77.9989566 C16,77.4472481 16.4489202,77 17.007484,77 L29.992516,77 C30.5489341,77 31,77.4426603 31,77.9989566 L31,79.0010434 C31,79.5527519 30.5510798,80 29.992516,80 L17.007484,80 C16.4510659,80 16,79.5573397 16,79.0010434 L16,77.9989566 Z" id="path-1"></path>
        <mask id="mask-2" maskContentUnits="userSpaceOnUse" maskUnits="objectBoundingBox" x="0" y="0" width="15" height="3" fill="white">
            <use xlink:href="#path-1"></use>
        </mask>
        <path d="M18,69.5093689 C18,68.9519098 18.444837,68.5 18.9955775,68.5 L28.0044225,68.5 C28.5542648,68.5 29,68.9433532 29,69.5093689 L29,71.4906311 C29,72.0480902 28.555163,72.5 28.0044225,72.5 L18.9955775,72.5 C18.4457352,72.5 18,72.0566468 18,71.4906311 L18,69.5093689 Z" id="path-3"></path>
        <mask id="mask-4" maskContentUnits="userSpaceOnUse" maskUnits="objectBoundingBox" x="0" y="0" width="11" height="4" fill="white">
            <use xlink:href="#path-3"></use>
        </mask>
    </defs>
    <g id="Page-1" stroke="none" stroke-width="1" fill="none" fill-rule="evenodd">
        <g id="aetm-web-home" transform="translate(-427.000000, -2017.000000)" stroke="#259CC2">
            <g id="produit-illu1" transform="translate(428.000000, 2018.000000)">
                <g id="Page-1" transform="translate(48.000000, 0.000000)">
                    <path d="M39.8714,84.6408 L6.6244,84.6408 C3.2564,84.6408 0.5004,81.8848 0.5004,78.5158 L0.5004,6.6248 C0.5004,3.2558 3.2564,0.4998 6.6244,0.4998 L39.8714,0.4998 C43.2404,0.4998 45.9964,3.2558 45.9964,6.6248 L45.9964,78.5158 C45.9964,81.8848 43.2404,84.6408 39.8714,84.6408 Z" id="Stroke-1"></path>
                    <path d="M38.0059,72.9401 L8.4909,72.9401 C6.3619,72.9401 4.6209,71.1991 4.6209,69.0701 L4.6209,8.4091 C4.6209,6.2811 6.3619,4.5391 8.4909,4.5391 L38.0059,4.5391 C40.1339,4.5391 41.8759,6.2811 41.8759,8.4091 L41.8759,69.0701 C41.8759,71.1991 40.1339,72.9401 38.0059,72.9401 Z" id="Stroke-3"></path>
                    <use id="Rectangle-6" mask="url(#mask-2)" stroke-width="2" xlink:href="#path-1"></use>
                </g>
                <g id="Page-1-Copy-5" transform="translate(101.000000, 8.000000)">
                    <path d="M39.8745153,76.6408 L6.62488458,76.6408 C3.25661808,76.6408 0.5004,74.1304656 0.5004,71.0617731 L0.5004,5.57902687 C0.5004,2.51033438 3.25661808,0 6.62488458,0 L39.8745153,0 C43.2437819,0 46,2.51033438 46,5.57902687 L46,71.0617731 C46,74.1304656 43.2437819,76.6408 39.8745153,76.6408 Z" id="Stroke-1"></path>
                    <path d="M41.2735619,64.9401 L5.22683812,64.9401 C2.6266865,64.9401 0.5004,63.414454 0.5004,61.5488018 L0.5004,8.39129818 C0.5004,6.52652233 2.6266865,5 5.22683812,5 L41.2735619,5 C43.8724922,5 46,6.52652233 46,8.39129818 L46,61.5488018 C46,63.414454 43.8724922,64.9401 41.2735619,64.9401 Z" id="Stroke-3"></path>
                    <use id="Rectangle-6" mask="url(#mask-4)" stroke-width="2" xlink:href="#path-3"></use>
                </g>
                <g id="Page-1-Copy" transform="translate(0.000000, 11.000000)">
                    <path d="M35.480284,74 L5.51881484,74 C2.48364691,74 0,71.5761638 0,68.6132088 L0,5.38679122 C0,2.42383618 2.48364691,0 5.51881484,0 L35.480284,0 C38.5163531,0 41,2.42383618 41,5.38679122 L41,68.6132088 C41,71.5761638 38.5163531,74 35.480284,74 Z" id="Stroke-1"></path>
                    <path d="M33.5720038,64 L7.42799624,64 C5.54215542,64 4,62.4728293 4,60.6053128 L4,7.39468721 C4,5.52804784 5.54215542,4 7.42799624,4 L33.5720038,4 C35.4569588,4 37,5.52804784 37,7.39468721 L37,60.6053128 C37,62.4728293 35.4569588,64 33.5720038,64 Z" id="Stroke-3"></path>
                    <path d="M22.7148,68.6112 C22.7148,69.9732 21.6108,71.0782 20.2478,71.0782 C18.8858,71.0782 17.7818,69.9732 17.7818,68.6112 C17.7818,67.2492 18.8858,66.1442 20.2478,66.1442 C21.6108,66.1442 22.7148,67.2492 22.7148,68.6112 Z" id="Stroke-5"></path>
                </g>
            </g>
        </g>
    </g>
</svg>