<?xml version="1.0" encoding="UTF-8"?>
<svg width="101px" height="65px" viewBox="0 0 101 65" version="1.1" xmlns="http://www.w3.org/2000/svg" xmlns:xlink="http://www.w3.org/1999/xlink">
    <!-- Generator: sketchtool 41 (35326) - http://www.bohemiancoding.com/sketch -->
    <title>78FE7132-98F7-420A-BF52-68AEBC860D38</title>
    <desc>Created with sketchtool.</desc>
    <defs></defs>
    <g id="Page-1" stroke="none" stroke-width="1" fill="none" fill-rule="evenodd" stroke-linecap="round">
        <g id="aetm-web-home" transform="translate(-676.000000, -1534.000000)" stroke="#FFFFFF">
            <g id="Lesaviezvous-Copy" transform="translate(251.000000, 1503.000000)">
                <g id="didyouknow-café" transform="translate(426.000000, 31.000000)">
                    <path d="M91,38 C91,48.8366861 87.4534745,63 71.4988956,63 C55.5465255,63 52,48.8366861 52,38 L91,38 Z" id="Stroke-1"></path>
                    <path d="M54,64 L91,64" id="Stroke-3"></path>
                    <path d="M99,48.5 C99,50.9847384 96.9842501,53 94.4989096,53 C92.0135692,53 90,50.9847384 90,48.5 C90,46.0152616 92.0135692,44 94.4989096,44 C96.9842501,44 99,46.0152616 99,48.5 Z" id="Stroke-5"></path>
                    <path d="M66.5004198,29 C64.7675296,26.75 68.2316308,22.25 66.5004198,20" id="Stroke-7"></path>
                    <path d="M70.5,29 C68.7679492,26.6666667 72.2320508,17.3333333 70.5,15" id="Stroke-9"></path>
                    <path d="M75.5,29 C73.7679492,26.75 77.2320508,22.25 75.5,20" id="Stroke-11"></path>
                    <path d="M32,20 L0,20 L0,60.7778788 C0,62.5570311 1.4330947,64 3.20007227,64 L28.7999277,64 C30.5669053,64 32,62.5570311 32,60.7778788 L32,20 Z" id="Stroke-13" stroke-linejoin="round"></path>
                    <path d="M41,46.7271906 C41,49.4817638 37.9077744,52 35.0464939,52 L32,52 L32,26 L35.0464939,26 C37.9077744,26 41,27.3629743 41,30.1175474 L41,46.7271906 Z" id="Stroke-15" stroke-linejoin="round"></path>
                    <path d="M11.5004198,14 C9.76752961,11.75 13.2316308,7.25 11.5004198,5" id="Stroke-17"></path>
                    <path d="M16.5,14 C14.7679492,11.6666667 18.2320508,2.33333333 16.5,0" id="Stroke-19"></path>
                    <path d="M20.5,14 C18.7679492,11.75 22.2320508,7.25 20.5,5" id="Stroke-21"></path>
                </g>
            </g>
        </g>
    </g>
</svg>