<svg xmlns="http://www.w3.org/2000/svg" xmlns:xlink="http://www.w3.org/1999/xlink" width="411" height="68" viewBox="0 0 411 68">
    <defs>
        <path id="a" d="M0 68h411V0H0z"/>
    </defs>
    <g fill="none" fill-rule="evenodd">
        <path fill="#9B9B9B" d="M30.379 48.924c0-6.945-4.283-12.819-11.84-12.819-7.245 0-11.527 6.181-11.527 12.82 0 6.714 4.129 12.972 11.527 12.972 7.634 0 11.84-5.952 11.84-12.973zM37 66.781h-7.01v-5.57h-.156C27.03 65.253 22.667 68 17.448 68 6.31 68 0 58.92 0 48.697 0 38.93 6.621 30 17.215 30c5.375 0 9.737 2.746 12.619 7.02h.157v-5.952H37v35.713z"/>
        <mask id="b" fill="#fff">
            <use xlink:href="#a"/>
        </mask>
        <path fill="#9B9B9B" d="M45 66h7V0h-7zM85.953 44.882c-.86-5.342-4.463-8.93-10.102-8.93-5.48 0-9.552 3.815-10.413 8.93h20.515zm-20.905 5.186c.077 6.106 4.305 11.828 11.039 11.828 5.403 0 8.3-2.67 10.962-6.944L93 58.232C89.555 64.417 83.134 68 76.01 68 64.812 68 58 59.76 58 49.232 58 38.242 64.03 30 75.851 30 87.518 30 93 38.396 93 49v1.068H65.048z" mask="url(#b)"/>
        <path fill="#9B9B9B" d="M95.174 30h8.199l8.59 11.616L121.324 30h8.432L116.45 46.46 132 66h-8.123l-11.914-14.616L100.434 66H92l16.17-19.54zM155.42 46.83c-1.422.802-2.967 3.78-2.997 5.909 1.425-1.87 2.61-3.592 2.997-5.91m14.037-2.47c1.365-1.077 2.734-2.15 4.092-3.237.92-.736 1.808-.984 2.922-.278 1.058.67 1.45 1.547.572 2.416-1.648 1.633-3.424 3.144-5.213 4.626-.894.74-1.973 1.256-2.89 1.974-.32.25-.56.8-.567 1.217-.042 2.252-.469 4.534.382 6.735.105.274.236.538.376.856 1.142-.898 2.22-1.712 3.257-2.574 1.227-1.021 2.419-2.084 3.621-3.132.518-.452 1.159-.83 1.512-1.388.673-1.058 1.233-.491 1.882-.058.759.507.737 1.192.256 1.769a226.725 226.725 0 0 1-5.432 6.282 13.173 13.173 0 0 1-2.138 1.891c-1.82 1.3-3.831 1.444-5.317-.516-.411-.541-.912-1.018-1.295-1.576-.362-.525-.624-1.116-.96-1.736-1.547 1.73-3.085 3.356-4.506 5.078a10.59 10.59 0 0 1-3.643 2.859c-1.887.904-4.255.364-5.718-1.346-.54-.633-.93-1.403-1.518-1.98-.31-.307-.907-.496-1.356-.464-1.565.112-3.318-.806-3.766-2.234-.084-.268.38-.774.688-1.07.14-.133.517-.008.788-.016 1.47-.045 2.658-.734 2.436-2.436-.239-1.82.027-3.543.785-5.242.595-1.335.93-2.782 1.445-4.157.744-1.99 4.614-3.846 6.449-3.148 1.365.52 1.893 1.7 2.38 2.922.908 2.282-.045 4.233-1.294 5.99-1.549 2.179-3.305 4.211-4.994 6.29-.759.934-.443 2.987.585 3.629.869.544 1.42-.13 1.863-.602 1.826-1.945 3.526-4.008 5.366-5.938 1.35-1.415 1.973-3.194 2.746-4.896 1.293-2.845 1.427-5.97 1.987-8.985.52-2.797.853-5.628 1.275-8.443.219-1.457.598-1.655 1.996-1.269 2.953.814 2.236.822 2.053 3.46-.158 2.28-.57 4.542-.897 6.81-.085.59-.274 1.168-.416 1.752.07.055.138.11.206.166M205.923 34.604h.153c2.001-3.146 5.616-5.604 9.538-5.604 4.695 0 8.078 2.38 10.386 6.372 2.23-3.838 6.538-6.372 11.078-6.372C246.538 29 249 36.37 249 44.506V66h-6.922V45.659c0-4.608-.615-10.517-6.692-10.517-7.385 0-7.924 7.676-7.924 13.204V66h-6.924V46.962c0-4.682-.229-11.82-6.615-11.82-7.385 0-8 7.599-8 13.204V66H199V30.074h6.923v4.53zM285.379 48.924c0-6.945-4.283-12.819-11.84-12.819-7.245 0-11.527 6.181-11.527 12.82 0 6.714 4.129 12.972 11.527 12.972 7.634 0 11.84-5.952 11.84-12.973zM292 66.781h-7.01v-5.57h-.157C282.03 65.253 277.667 68 272.448 68 261.309 68 255 58.92 255 48.697 255 38.93 261.621 30 272.214 30c5.376 0 9.738 2.746 12.62 7.02h.156v-5.952H292v35.713zM306.994 34.91h.154c2.175-3.837 6.526-5.91 10.954-5.91C328.358 29 331 35.833 331 44.584V66h-6.994V45.426c0-6.14-.854-10.284-8.001-10.284-9.011 0-9.011 7.83-9.011 14.355V66H300V30.074h6.994v4.837zM343.02 49c0 6.715 5.538 12.438 12.48 12.438 6.943 0 12.481-5.723 12.481-12.438 0-6.789-5.538-12.438-12.481-12.438-6.942 0-12.48 5.65-12.48 12.438M375 49c0 10.76-8.58 19-19.5 19S336 59.76 336 49c0-10.758 8.58-19 19.5-19S375 38.242 375 49M386.994 34.91h.154c2.175-3.837 6.526-5.91 10.954-5.91C408.358 29 411 35.833 411 44.584V66h-6.994V45.426c0-6.14-.854-10.284-8.002-10.284-9.01 0-9.01 7.83-9.01 14.355V66H380V30.074h6.994v4.837z" mask="url(#b)"/>
    </g>
</svg>
