<?xml version="1.0" encoding="UTF-8"?>
<svg width="197px" height="86px" viewBox="0 0 197 86" version="1.1" xmlns="http://www.w3.org/2000/svg" xmlns:xlink="http://www.w3.org/1999/xlink">
    <!-- Generator: sketchtool 41 (35326) - http://www.bohemiancoding.com/sketch -->
    <title>03653BE3-2154-4679-ABB4-000B02B72093</title>
    <desc>Created with sketchtool.</desc>
    <defs>
        <polygon id="path-1" points="0 85.1408 196.864 85.1408 196.864 -0.0002 0 -0.0002"></polygon>
    </defs>
    <g id="Page-1" stroke="none" stroke-width="1" fill="none" fill-rule="evenodd">
        <g id="aetm-web-home" transform="translate(-753.000000, -2018.000000)">
            <g id="Page-1" transform="translate(753.000000, 2018.000000)">
                <path d="M126.9834,54.0561 L126.9834,78.5161 C126.9834,81.8841 124.2274,84.6411 120.8584,84.6411 L87.6124,84.6411 C84.2434,84.6411 81.4874,81.8841 81.4874,78.5161 L81.4874,6.6251 C81.4874,3.2561 84.2434,0.5001 87.6124,0.5001 L120.8584,0.5001 C124.2274,0.5001 126.9834,3.2561 126.9834,6.6251 L126.9834,26.6721 L126.9834,54.0561 Z" id="Stroke-1" stroke="#259CC2"></path>
                <path d="M106.7019,78.6112 C106.7019,79.9732 105.5979,81.0782 104.2349,81.0782 C102.8729,81.0782 101.7689,79.9732 101.7689,78.6112 C101.7689,77.2492 102.8729,76.1442 104.2349,76.1442 C105.5979,76.1442 106.7019,77.2492 106.7019,78.6112 Z" id="Stroke-3" stroke="#259CC2"></path>
                <path d="M61.6813,19.6802 C61.6813,29.3012 53.8833,37.0992 44.2613,37.0992 C34.6423,37.0992 26.8433,29.3012 26.8433,19.6802 C26.8433,10.0582 34.6423,2.2602 44.2613,2.2602 C53.8833,2.2602 61.6813,10.0582 61.6813,19.6802 Z" id="Stroke-5" stroke="#259CC2" stroke-linecap="round" stroke-linejoin="round"></path>
                <path d="M43.8087,3.3725 L43.8087,6.5395" id="Stroke-7" stroke="#259CC2" stroke-linecap="round" stroke-linejoin="round"></path>
                <path d="M43.8087,33.4581 L43.8087,36.6251" id="Stroke-9" stroke="#259CC2" stroke-linecap="round" stroke-linejoin="round"></path>
                <path d="M27.9742,19.9987 L31.1412,19.9987" id="Stroke-11" stroke="#259CC2" stroke-linecap="round" stroke-linejoin="round"></path>
                <path d="M58.0598,19.9987 L61.2268,19.9987" id="Stroke-13" stroke="#259CC2" stroke-linecap="round" stroke-linejoin="round"></path>
                <path d="M50.3582,15.7541 C50.3582,19.1421 47.6112,25.0571 44.2212,25.0571 C40.8332,25.0571 38.0862,19.1421 38.0862,15.7541 C38.0862,12.3651 40.8332,9.6171 44.2212,9.6171 C47.6112,9.6171 50.3582,12.3651 50.3582,15.7541 Z" id="Stroke-15" stroke="#259CC2" stroke-linecap="round" stroke-linejoin="round"></path>
                <path d="M42.2253,24.7491 L40.1373,24.7491 C38.1333,24.7491 35.8913,26.0871 35.8913,28.0911 L35.8913,30.2911" id="Stroke-17" stroke="#259CC2" stroke-linecap="round" stroke-linejoin="round"></path>
                <path d="M46.9756,24.7491 L49.0976,24.7491 C51.1016,24.7491 51.7256,26.0871 51.7256,28.0911 L51.7256,30.2911" id="Stroke-19" stroke="#259CC2" stroke-linecap="round" stroke-linejoin="round"></path>
                <path d="M56.9472,50.5365 L56.9472,79.7755 C56.9472,82.3005 58.9942,84.3475 61.5192,84.3475 C64.0452,84.3475 66.0922,82.3005 66.0922,79.7755 L66.0922,50.5365" id="Stroke-21" stroke="#259CC2"></path>
                <path d="M56.9472,50.5365 C56.9472,48.6675 55.4332,47.1565 53.5672,47.1565" id="Stroke-23" stroke="#259CC2" stroke-linecap="round"></path>
                <path d="M66.092,50.5365 C66.092,48.6675 67.606,47.1565 69.472,47.1565" id="Stroke-25" stroke="#259CC2" stroke-linecap="round"></path>
                <path d="M58.0903,51.6796 L66.0923,51.6796" id="Stroke-27" stroke="#259CC2" stroke-linecap="round"></path>
                <path d="M58.0903,56.252 L61.5193,56.252" id="Stroke-29" stroke="#259CC2" stroke-linecap="round"></path>
                <path d="M58.0903,60.8245 L61.5193,60.8245" id="Stroke-31" stroke="#259CC2" stroke-linecap="round"></path>
                <path d="M58.0903,65.3969 L61.5193,65.3969" id="Stroke-33" stroke="#259CC2" stroke-linecap="round"></path>
                <path d="M70.1264,33.0475 C68.3144,33.0475 66.8404,34.5225 66.8404,36.3345 C66.8404,38.1465 68.3144,39.6205 70.1264,39.6205 C71.9384,39.6205 73.4124,38.1465 73.4124,36.3345 C73.4124,34.5225 71.9384,33.0475 70.1264,33.0475 M70.1264,34.0475 C71.3904,34.0475 72.4124,35.0695 72.4124,36.3345 C72.4124,37.5985 71.3904,38.6205 70.1264,38.6205 C68.8624,38.6205 67.8404,37.5985 67.8404,36.3345 C67.8404,35.0695 68.8624,34.0475 70.1264,34.0475" id="Fill-35" fill="#259CC2"></path>
                <path d="M60.9816,40.9071 C59.7176,40.9071 58.6956,41.9291 58.6956,43.1931 C58.6956,44.4571 59.7176,45.4801 60.9816,45.4801 C62.2456,45.4801 63.2676,44.4571 63.2676,43.1931 C63.2676,41.9291 62.2456,40.9071 60.9816,40.9071 M60.9816,41.9071 C61.6906,41.9071 62.2676,42.4841 62.2676,43.1931 C62.2676,43.9031 61.6906,44.4801 60.9816,44.4801 C60.2726,44.4801 59.6956,43.9031 59.6956,43.1931 C59.6956,42.4841 60.2726,41.9071 60.9816,41.9071" id="Fill-37" fill="#259CC2"></path>
                <polyline id="Stroke-39" stroke="#259CC2" stroke-linecap="round" stroke-linejoin="round" points="158.9788 48.6318 170.4848 59.2338 196.3638 19.1528 141.9058 36.4098 151.8018 44.3098"></polyline>
                <polyline id="Stroke-41" stroke="#259CC2" stroke-linecap="round" stroke-linejoin="round" points="151.0695 43.7053 151.0695 56.5383 158.9185 48.2233"></polyline>
                <polyline id="Stroke-43" stroke="#259CC2" stroke-linecap="round" stroke-linejoin="round" points="151.7898 44.3049 196.3638 19.1529 158.9188 48.2229"></polyline>
                <polyline id="Stroke-45" stroke="#259CC2" stroke-linecap="round" stroke-linejoin="round" points="138.7774 45.387 143.5964 51.411 138.7774 57.434"></polyline>
                <path d="M100.1978,64.4357 C94.1178,59.9707 81.2338,40.0777 90.8388,32.4487 C98.0238,26.7397 107.2468,34.3477 103.2558,45.7937 C98.4058,59.7007 109.7078,66.0577 116.4518,61.9427 C123.8858,57.4057 124.4998,44.4527 113.6878,35.9197 C107.8708,31.3287 104.1698,26.2547 105.3818,19.2397 C106.9578,10.1047 121.4528,9.4247 125.0558,25.0867 C128.6588,40.7497 131.8548,51.4107 137.4758,51.4107 L142.3258,51.4107" id="Stroke-47" stroke="#259CC2" stroke-linecap="round" stroke-linejoin="round"></path>
                <mask id="mask-2" fill="white">
                    <use xlink:href="#path-1"></use>
                </mask>
                <g id="Clip-50"></g>
                <polygon id="Stroke-49" stroke="#259CC2" stroke-linecap="round" stroke-linejoin="round" mask="url(#mask-2)" points="0.5 57.6798 46.5 57.6798 46.5 47.6798 0.5 47.6798"></polygon>
                <path d="M40.5,52.6796 L40.5,48.6796" id="Stroke-51" stroke="#259CC2" stroke-linecap="round" stroke-linejoin="round" mask="url(#mask-2)"></path>
                <path d="M36.5,50.6796 L36.5,48.6796" id="Stroke-52" stroke="#259CC2" stroke-linecap="round" stroke-linejoin="round" mask="url(#mask-2)"></path>
                <path d="M32.5,52.6796 L32.5,48.6796" id="Stroke-53" stroke="#259CC2" stroke-linecap="round" stroke-linejoin="round" mask="url(#mask-2)"></path>
                <path d="M28.5,50.6796 L28.5,48.6796" id="Stroke-54" stroke="#259CC2" stroke-linecap="round" stroke-linejoin="round" mask="url(#mask-2)"></path>
                <path d="M24.5,52.6796 L24.5,48.6796" id="Stroke-55" stroke="#259CC2" stroke-linecap="round" stroke-linejoin="round" mask="url(#mask-2)"></path>
                <path d="M20.5,50.6796 L20.5,48.6796" id="Stroke-56" stroke="#259CC2" stroke-linecap="round" stroke-linejoin="round" mask="url(#mask-2)"></path>
                <path d="M16.5,52.6796 L16.5,48.6796" id="Stroke-57" stroke="#259CC2" stroke-linecap="round" stroke-linejoin="round" mask="url(#mask-2)"></path>
                <path d="M12.5,50.6796 L12.5,48.6796" id="Stroke-58" stroke="#259CC2" stroke-linecap="round" stroke-linejoin="round" mask="url(#mask-2)"></path>
                <path d="M8.5,52.6796 L8.5,48.6796" id="Stroke-59" stroke="#259CC2" stroke-linecap="round" stroke-linejoin="round" mask="url(#mask-2)"></path>
                <path d="M4.5,50.6796 L4.5,48.6796" id="Stroke-60" stroke="#259CC2" stroke-linecap="round" stroke-linejoin="round" mask="url(#mask-2)"></path>
            </g>
        </g>
    </g>
</svg>