<?xml version="1.0" encoding="utf-8"?>
<!-- Generator: Adobe Illustrator 19.1.0, SVG Export Plug-In . SVG Version: 6.00 Build 0)  -->
<svg version="1.1" id="Calque_1" xmlns="http://www.w3.org/2000/svg" xmlns:xlink="http://www.w3.org/1999/xlink" x="0px" y="0px"
	 viewBox="0 0 608.9 101.7" style="enable-background:new 0 0 608.9 101.7;" xml:space="preserve">
<style type="text/css">
	.st0{fill:#FEE05C;}
	.st1{fill:#149BC3;}
	.st2{fill:#FFFFFF;}
	.st3{fill:#F46F7C;}
	.st4{fill:#259CC2;}
	.st5{fill:#FEDF5E;}
	.st6{fill:#2E3191;}
	.st7{fill:none;}
</style>
<g>
	<g>
		<path class="st4" d="M54.6,99.8H44.3v-8.4h-0.2c-4.1,6.1-10.6,10.2-18.3,10.2C9.3,101.7,0,88,0,72.6c0-14.7,9.8-28.2,25.4-28.2
			c7.9,0,14.4,4.1,18.6,10.6h0.2v-9h10.4V99.8z M44.9,72.9c0-10.5-6.3-19.3-17.5-19.3c-10.7,0-17,9.3-17,19.3
			c0,10.1,6.1,19.6,17,19.6C38.6,92.5,44.9,83.5,44.9,72.9z"/>
		<path class="st4" d="M77.2,99.8H66.8V0h10.4V99.8z"/>
		<path class="st4" d="M96.4,74.6c0.1,9.2,6.3,17.8,16.2,17.8c7.9,0,12.2-4,16.1-10.5l8.7,4.9c-5.1,9.3-14.5,14.7-25,14.7
			C96.1,101.7,86,89.3,86,73.4c0-16.6,8.9-29,26.2-29c17.1,0,25.2,12.7,25.2,28.6v1.6H96.4z M127.1,66.8
			c-1.3-8.1-6.6-13.5-14.8-13.5c-8,0-14,5.8-15.3,13.5H127.1z"/>
		<path class="st4" d="M140.6,46h12.2l12.8,17.4L179.5,46H192l-19.8,24.6l23.1,29.2h-12.1L165.5,78l-17.1,21.9h-12.5l24-29.2
			L140.6,46z"/>
	</g>
	<path class="st5" d="M251.1,66.1c2-1.6,4.1-3.2,6.1-4.8c1.4-1.1,2.7-1.5,4.3-0.4c1.6,1,2.2,2.3,0.9,3.6c-2.5,2.4-5.1,4.7-7.8,6.9
		c-1.3,1.1-2.9,1.9-4.3,2.9c-0.5,0.4-0.8,1.2-0.8,1.8c-0.1,3.4-0.7,6.8,0.6,10c0.2,0.4,0.4,0.8,0.6,1.3c1.7-1.3,3.3-2.6,4.8-3.8
		c1.8-1.5,3.6-3.1,5.4-4.7c0.8-0.7,1.7-1.2,2.2-2.1c1-1.6,1.8-0.7,2.8-0.1c1.1,0.8,1.1,1.8,0.4,2.6c-2.6,3.2-5.3,6.3-8.1,9.4
		c-0.9,1-2,2-3.2,2.8c-2.7,1.9-5.7,2.2-7.9-0.8c-0.6-0.8-1.4-1.5-1.9-2.4c-0.5-0.8-0.9-1.7-1.4-2.6c-2.3,2.6-4.6,5-6.7,7.6
		c-1.5,1.8-3.3,3.2-5.4,4.3c-2.8,1.3-6.3,0.5-8.5-2c-0.8-0.9-1.4-2.1-2.3-3c-0.5-0.5-1.4-0.7-2-0.7c-2.3,0.2-4.9-1.2-5.6-3.3
		c-0.1-0.4,0.6-1.2,1-1.6c0.2-0.2,0.8,0,1.2,0c2.2-0.1,4-1.1,3.6-3.6c-0.4-2.7,0-5.3,1.2-7.8c0.9-2,1.4-4.1,2.1-6.2
		c1.1-3,6.9-5.7,9.6-4.7c2,0.8,2.8,2.5,3.5,4.4c1.4,3.4-0.1,6.3-1.9,8.9c-2.3,3.2-4.9,6.3-7.4,9.4c-1.1,1.4-0.7,4.5,0.9,5.4
		c1.3,0.8,2.1-0.2,2.8-0.9c2.7-2.9,5.2-6,8-8.9c2-2.1,2.9-4.8,4.1-7.3c1.9-4.2,2.1-8.9,3-13.4c0.8-4.2,1.3-8.4,1.9-12.6
		c0.3-2.2,0.9-2.5,3-1.9c4.4,1.2,3.3,1.2,3.1,5.2c-0.2,3.4-0.8,6.8-1.3,10.1c-0.1,0.9-0.4,1.7-0.6,2.6C250.9,66,251,66,251.1,66.1z
		 M230.2,69.8c-2.1,1.2-4.4,5.6-4.5,8.8C227.9,75.8,229.7,73.3,230.2,69.8z"/>
	<g>
		<path class="st3" d="M305.4,52.8h0.2c3-4.7,8.4-8.4,14.3-8.4c7,0,12.1,3.6,15.5,9.5c3.3-5.8,9.8-9.5,16.6-9.5
			c14.1,0,17.8,11,17.8,23.2v32.2h-10.4V69.4c0-6.9-0.9-15.8-10-15.8c-11,0-11.8,11.5-11.8,19.8v26.5h-10.4V71.3
			c0-7-0.3-17.7-9.9-17.7c-11,0-12,11.4-12,19.8v26.5h-10.4V46h10.4V52.8z"/>
		<path class="st3" d="M432.4,99.8h-10.4v-8.4h-0.2c-4.1,6.1-10.6,10.2-18.3,10.2c-16.4,0-25.8-13.7-25.8-29.1
			c0-14.7,9.8-28.2,25.4-28.2c7.9,0,14.4,4.1,18.6,10.6h0.2v-9h10.4V99.8z M422.7,72.9c0-10.5-6.3-19.3-17.5-19.3
			c-10.7,0-17,9.3-17,19.3c0,10.1,6.1,19.6,17,19.6C416.5,92.5,422.7,83.5,422.7,72.9z"/>
		<path class="st3" d="M454.5,53.3h0.2c3.2-5.8,9.7-8.9,16.2-8.9c15.2,0,19.1,10.2,19.1,23.4v32.1h-10.4V69
			c0-9.2-1.3-15.4-11.8-15.4c-13.3,0-13.3,11.7-13.3,21.5v24.7h-10.4V46h10.4V53.3z"/>
		<path class="st3" d="M555.3,73c0,16.2-12.7,28.6-28.8,28.6c-16.1,0-28.8-12.4-28.8-28.6c0-16.2,12.7-28.6,28.8-28.6
			C542.7,44.4,555.3,56.8,555.3,73z M508.1,73c0,10.1,8.2,18.7,18.4,18.7S545,83.2,545,73c0-10.2-8.2-18.7-18.4-18.7
			S508.1,62.8,508.1,73z"/>
		<path class="st3" d="M573.4,53.3h0.2c3.2-5.8,9.7-8.9,16.2-8.9c15.2,0,19.1,10.2,19.1,23.4v32.1h-10.4V69
			c0-9.2-1.3-15.4-11.8-15.4c-13.3,0-13.3,11.7-13.3,21.5v24.7H563V46h10.4V53.3z"/>
	</g>
</g>
</svg>
