<?xml version="1.0" encoding="UTF-8"?>
<svg width="138px" height="66px" viewBox="0 0 138 66" version="1.1" xmlns="http://www.w3.org/2000/svg" xmlns:xlink="http://www.w3.org/1999/xlink">
    <!-- Generator: sketchtool 41 (35326) - http://www.bohemiancoding.com/sketch -->
    <title>1FFC0DFB-2314-49B2-A981-000814ABEEEB</title>
    <desc>Created with sketchtool.</desc>
    <defs></defs>
    <g id="Page-1" stroke="none" stroke-width="1" fill="none" fill-rule="evenodd">
        <g id="aetm-DIDYOUKNOW-illus" transform="translate(-193.000000, -272.000000)" stroke="#FEFEFE">
            <g id="DYK-illu2" transform="translate(194.000000, 273.000000)">
                <path d="M29.9917761,63.5447761 L5.07446269,63.5447761 C2.55013433,63.5447761 0.484686567,61.4793284 0.484686567,58.9540299 L0.484686567,5.0758209 C0.484686567,2.55052239 2.55013433,0.485074627 5.07446269,0.485074627 L29.9917761,0.485074627 C32.5170746,0.485074627 34.5825224,2.55052239 34.5825224,5.0758209 L34.5825224,58.9540299 C34.5825224,61.4793284 32.5170746,63.5447761 29.9917761,63.5447761 Z" id="Stroke-1"></path>
                <path d="M28.593694,54.775597 L6.4733209,54.775597 C4.87839552,54.775597 3.57354478,53.4707463 3.57354478,51.8748507 L3.57354478,6.41268657 C3.57354478,4.81776119 4.87839552,3.5119403 6.4733209,3.5119403 L28.593694,3.5119403 C30.1886194,3.5119403 31.4944403,4.81776119 31.4944403,6.41268657 L31.4944403,51.8748507 C31.4944403,53.4707463 30.1886194,54.775597 28.593694,54.775597 Z" id="Stroke-3"></path>
                <path d="M12.1012537,58.5669403 C12.1012537,58.1536567 12.4378955,57.8179851 12.8560299,57.8179851 L22.587597,57.8179851 C23.0047612,57.8179851 23.3433433,58.1497761 23.3433433,58.5669403 L23.3433433,59.3178358 C23.3433433,59.7311194 23.0067015,60.066791 22.587597,60.066791 L12.8560299,60.066791 C12.4388657,60.066791 12.1012537,59.735 12.1012537,59.3178358 L12.1012537,58.5669403 Z" id="Stroke-5"></path>
                <path d="M131.546224,52.2998731 C131.752866,58.0761418 121.886448,63.1209179 109.504433,63.5681567 C97.1282388,64.0124851 86.9212985,59.6875597 86.7117463,53.9132313 L86.5516716,49.4321119 C86.4614478,46.956291 88.3978657,44.8772612 90.8727164,44.7870373 L93.8646567,44.6793507 C96.3404776,44.5891269 98.4195075,46.5255448 98.5087612,49.0003955 L98.6727164,53.4834552 C98.7600299,55.9563657 103.517642,57.7967388 109.29197,57.5891269 C115.067269,57.3815149 119.684209,55.2045 119.592045,52.7296493 L119.42809,48.2475597 C119.342716,45.7697985 121.275254,43.692709 123.751075,43.6024851 L126.742045,43.4947985 C129.218836,43.4065149 131.295925,45.3409925 131.38809,47.8148731 L131.546224,52.2998731 Z" id="Stroke-7" stroke-linecap="round" stroke-linejoin="round"></path>
                <path d="M34.6567388,14.3653881 C34.0445746,16.2833731 35.4687537,18.3866567 37.3159179,19.1860597 C39.1630821,19.9864328 41.2770373,19.7943433 43.2629328,19.4625522 C44.7036045,19.2219552 46.1908433,18.8911343 47.3395,17.9879254 C48.4881567,17.0847164 49.1886045,15.4538955 48.5977836,14.118 C47.7595746,13.617403 46.6080075,13.981209 45.9715896,14.7214328 C45.3351716,15.4616567 45.1197985,16.4754627 45.0635299,17.4504627 C44.9645746,19.142403 45.3390522,20.9672537 46.5556194,22.1488955 C48.080694,23.6303134 50.4779328,23.7147164 52.578306,23.3819552 C53.820097,23.1859851 55.0977836,22.8483731 56.0349478,22.009194 C56.9711418,21.1709851 57.4484552,19.7070299 56.8275597,18.6136716 C55.8418881,18.1276269 54.5855448,18.5399403 53.8492015,19.3548657 C53.1128582,20.169791 52.8159925,21.2951642 52.7228582,22.3894925 C52.5084552,24.9312836 53.4465896,27.7214328 55.6226343,29.0534478 C57.388306,30.134194 59.6021866,30.088597 61.6637537,29.8984478 C62.737709,29.7994925 63.9222612,29.6112836 64.603306,28.7759851 C65.6219627,27.527403 64.7255448,25.4076269 63.1878582,24.9283731 C61.6492015,24.4500896 59.9281567,25.3309851 59.0259179,26.6649403 C58.1246493,27.9998657 57.8986045,29.6801642 57.9121866,31.2915821 C57.9354701,33.9158358 58.6184552,36.6865821 60.5209179,38.4939701 C62.4243507,40.3003881 65.7645746,40.7175522 67.6233806,38.8645672 C68.4800224,37.5131493 67.2615149,35.5718806 65.6869627,35.2866567 C64.1133806,35.0014328 62.542709,35.931806 61.4871866,37.1338209 C59.3868134,39.5281493 58.837709,43.2651642 60.4336045,46.0213582 C62.0304701,48.7775522 65.7956194,50.1493433 68.6818134,48.801806 C68.9534552,48.6747164 69.2192761,48.5243433 69.4249478,48.3070299 C70.1030821,47.5900896 69.8566642,46.3085224 69.0805448,45.6973284 C68.3053955,45.0871045 67.1936045,45.0589701 66.2603209,45.3800896 C64.6663657,45.9282239 63.4895746,47.3795672 62.9860672,48.9871045 C62.4815896,50.5946418 62.5824851,52.3389701 62.9559925,53.9814328 C63.3168881,55.5724776 64.0396493,57.2343433 65.4900224,57.9813582 C66.7842015,58.6488209 68.3519627,58.4276269 69.7538284,58.0308358 C70.8617388,57.7184478 72.0142761,57.2508358 72.6516642,56.2923284 C73.2900224,55.3338209 73.1037537,53.7718806 72.0375597,53.3372537 C71.2507687,53.0161343 70.3126343,53.4371791 69.7945746,54.1114328 C69.2765149,54.7847164 69.0902463,55.6520299 68.965097,56.4931493 C68.7458433,57.9658358 68.6924851,59.559791 69.4375597,60.8491194 C70.4387537,62.581806 72.7632313,63.2929254 74.678306,62.7127761 C76.5933806,62.1326269 78.0553955,60.4620299 78.7209179,58.5741194 C78.9042761,58.0550896 79.0342761,57.4856119 78.8800224,56.9568806 C78.7247985,56.4281493 78.1989776,55.9750896 77.6566642,56.0740448 C77.148306,56.1671791 76.8262164,56.6832985 76.6962164,57.1838955 C76.2208433,59.0174776 77.8215896,61.0790448 79.7153209,61.0732239 C81.8069627,61.0654627 83.2883806,59.059194 84.2032313,57.1771045 C85.1180821,55.2959851 84.7494254,53.2082239 86.6557687,52.3477015" id="Stroke-9" stroke-linecap="round" stroke-linejoin="round"></path>
                <path d="M136.70897,32.1373582 C133.466731,29.8468358 129.520164,28.4857164 125.247627,28.4857164 C120.97606,28.4857164 117.027552,29.8468358 113.787254,32.1373582" id="Stroke-11" stroke-linecap="round" stroke-linejoin="round"></path>
                <path d="M133.353224,35.9193881 C131.060761,34.2982687 128.269642,33.3368507 125.247627,33.3368507 C122.224642,33.3368507 119.433522,34.2982687 117.14106,35.9193881" id="Stroke-13" stroke-linecap="round" stroke-linejoin="round"></path>
                <path d="M129.999321,39.7014179 C128.655664,38.7516418 127.019022,38.1870149 125.24753,38.1870149 C123.475067,38.1870149 121.840366,38.7516418 120.494769,39.7014179" id="Stroke-15" stroke-linecap="round" stroke-linejoin="round"></path>
                <path d="M106.537716,63.5992985 L126.965179,63.5992985" id="Stroke-17" stroke-linecap="round" stroke-linejoin="round"></path>
            </g>
        </g>
    </g>
</svg>