<?xml version="1.0" encoding="UTF-8"?>
<svg width="109px" height="67px" viewBox="0 0 109 67" version="1.1" xmlns="http://www.w3.org/2000/svg" xmlns:xlink="http://www.w3.org/1999/xlink">
    <!-- Generator: sketchtool 41 (35326) - http://www.bohemiancoding.com/sketch -->
    <title>A0E8A344-6A66-4B51-91B8-AF3EE2E02C3F</title>
    <desc>Created with sketchtool.</desc>
    <defs></defs>
    <g id="Page-1" stroke="none" stroke-width="1" fill="none" fill-rule="evenodd" stroke-linecap="round" stroke-linejoin="round">
        <g id="aetm-DIDYOUKNOW-illus" transform="translate(-200.000000, -465.000000)" stroke="#FEFEFE">
            <g id="DYK-illu3" transform="translate(201.000000, 466.000000)">
                <path d="M68.7811288,39.2072121 C68.7811288,38.233197 69.5719621,37.4423636 70.5459773,37.4423636 L82.3139318,37.4423636 C83.287947,37.4423636 84.0787803,38.233197 84.0787803,39.2072121 L84.0787803,62.7421364 C84.0787803,63.7171364 83.287947,64.5079697 82.3139318,64.5079697 L70.5459773,64.5079697 C69.5719621,64.5079697 68.7811288,63.7171364 68.7811288,62.7421364 L68.7811288,39.2072121 Z" id="Stroke-1"></path>
                <path d="M83.4906288,59.8005909 L69.3698712,59.8005909" id="Stroke-3"></path>
                <polyline id="Stroke-5" points="76.8762879 62.1597955 76.8762879 62.1597955 76.4537879 62.1597955"></polyline>
                <path d="M83.4906288,42.1491515 L69.3698712,42.1491515" id="Stroke-7"></path>
                <path d="M77.6068485,39.7956591 L75.2530606,39.7956591" id="Stroke-9"></path>
                <path d="M91.5441288,39.2072121 C91.5441288,38.233197 92.3349621,37.4423636 93.3089773,37.4423636 L105.076932,37.4423636 C106.050947,37.4423636 106.84178,38.233197 106.84178,39.2072121 L106.84178,62.7421364 C106.84178,63.7171364 106.050947,64.5079697 105.076932,64.5079697 L93.3089773,64.5079697 C92.3349621,64.5079697 91.5441288,63.7171364 91.5441288,62.7421364 L91.5441288,39.2072121 Z" id="Stroke-11"></path>
                <path d="M106.25353,59.8005909 L92.1327727,59.8005909" id="Stroke-13"></path>
                <polyline id="Stroke-15" points="99.6391894 62.1597955 99.6391894 62.1597955 99.2166894 62.1597955"></polyline>
                <path d="M106.25353,42.1491515 L92.1327727,42.1491515" id="Stroke-17"></path>
                <path d="M100.36975,39.7956591 L98.0159621,39.7956591" id="Stroke-19"></path>
                <path d="M46.0182273,39.2072121 C46.0182273,38.233197 46.8090606,37.4423636 47.7830758,37.4423636 L59.5510303,37.4423636 C60.5250455,37.4423636 61.3158788,38.233197 61.3158788,39.2072121 L61.3158788,62.7421364 C61.3158788,63.7171364 60.5250455,64.5079697 59.5510303,64.5079697 L47.7830758,64.5079697 C46.8090606,64.5079697 46.0182273,63.7171364 46.0182273,62.7421364 L46.0182273,39.2072121 Z" id="Stroke-21"></path>
                <path d="M60.7277273,59.8005909 L46.6069697,59.8005909" id="Stroke-23"></path>
                <polyline id="Stroke-25" points="54.1133864 62.1597955 54.1133864 62.1597955 53.6908864 62.1597955"></polyline>
                <path d="M60.7277273,42.1491515 L46.6069697,42.1491515" id="Stroke-27"></path>
                <path d="M54.843947,39.7956591 L52.4901591,39.7956591" id="Stroke-29"></path>
                <path d="M23.2553258,39.2072121 C23.2553258,38.233197 24.0461591,37.4423636 25.0201742,37.4423636 L36.7881288,37.4423636 C37.7621439,37.4423636 38.5529773,38.233197 38.5529773,39.2072121 L38.5529773,62.7421364 C38.5529773,63.7171364 37.7621439,64.5079697 36.7881288,64.5079697 L25.0201742,64.5079697 C24.0461591,64.5079697 23.2553258,63.7171364 23.2553258,62.7421364 L23.2553258,39.2072121 Z" id="Stroke-31"></path>
                <path d="M37.9648258,59.8005909 L23.8440682,59.8005909" id="Stroke-33"></path>
                <polyline id="Stroke-35" points="31.3504848 62.1597955 31.3504848 62.1597955 30.9279848 62.1597955"></polyline>
                <path d="M37.9648258,42.1491515 L23.8440682,42.1491515" id="Stroke-37"></path>
                <path d="M32.0810455,39.7956591 L29.7272576,39.7956591" id="Stroke-39"></path>
                <path d="M0.492424242,39.2072121 C0.492424242,38.233197 1.28325758,37.4423636 2.25727273,37.4423636 L14.0252273,37.4423636 C14.9992424,37.4423636 15.7900758,38.233197 15.7900758,39.2072121 L15.7900758,62.7421364 C15.7900758,63.7171364 14.9992424,64.5079697 14.0252273,64.5079697 L2.25727273,64.5079697 C1.28325758,64.5079697 0.492424242,63.7171364 0.492424242,62.7421364 L0.492424242,39.2072121 Z" id="Stroke-41"></path>
                <path d="M15.2019242,59.8005909 L1.08116667,59.8005909" id="Stroke-43"></path>
                <polyline id="Stroke-45" points="8.58748485 62.1597955 8.58748485 62.1597955 8.16498485 62.1597955"></polyline>
                <path d="M15.2019242,42.1491515 L1.08116667,42.1491515" id="Stroke-47"></path>
                <path d="M9.31814394,39.7956591 L6.96435606,39.7956591" id="Stroke-49"></path>
                <path d="M68.7811288,3.33381061 C68.7811288,2.35979545 69.5719621,1.56896212 70.5459773,1.56896212 L82.3139318,1.56896212 C83.287947,1.56896212 84.0787803,2.35979545 84.0787803,3.33381061 L84.0787803,26.8687348 C84.0787803,27.8437348 83.287947,28.6345682 82.3139318,28.6345682 L70.5459773,28.6345682 C69.5719621,28.6345682 68.7811288,27.8437348 68.7811288,26.8687348 L68.7811288,3.33381061 Z" id="Stroke-51"></path>
                <path d="M83.4906288,23.9270909 L69.3698712,23.9270909" id="Stroke-53"></path>
                <polyline id="Stroke-55" points="76.8762879 26.2862955 76.8762879 26.2862955 76.4537879 26.2862955"></polyline>
                <path d="M83.4906288,6.27565152 L69.3698712,6.27565152" id="Stroke-57"></path>
                <path d="M77.6068485,3.92215909 L75.2530606,3.92215909" id="Stroke-59"></path>
                <path d="M46.0182273,3.33381061 C46.0182273,2.35979545 46.8090606,1.56896212 47.7830758,1.56896212 L59.5510303,1.56896212 C60.5250455,1.56896212 61.3158788,2.35979545 61.3158788,3.33381061 L61.3158788,26.8687348 C61.3158788,27.8437348 60.5250455,28.6345682 59.5510303,28.6345682 L47.7830758,28.6345682 C46.8090606,28.6345682 46.0182273,27.8437348 46.0182273,26.8687348 L46.0182273,3.33381061 Z" id="Stroke-61"></path>
                <path d="M60.7277273,23.9270909 L46.6069697,23.9270909" id="Stroke-63"></path>
                <polyline id="Stroke-65" points="54.1133864 26.2862955 54.1133864 26.2862955 53.6908864 26.2862955"></polyline>
                <path d="M60.7277273,6.27565152 L46.6069697,6.27565152" id="Stroke-67"></path>
                <path d="M54.843947,3.92215909 L52.4901591,3.92215909" id="Stroke-69"></path>
                <path d="M23.2553258,3.33381061 C23.2553258,2.35979545 24.0461591,1.56896212 25.0201742,1.56896212 L36.7881288,1.56896212 C37.7621439,1.56896212 38.5529773,2.35979545 38.5529773,3.33381061 L38.5529773,26.8687348 C38.5529773,27.8437348 37.7621439,28.6345682 36.7881288,28.6345682 L25.0201742,28.6345682 C24.0461591,28.6345682 23.2553258,27.8437348 23.2553258,26.8687348 L23.2553258,3.33381061 Z" id="Stroke-71"></path>
                <path d="M37.9648258,23.9270909 L23.8440682,23.9270909" id="Stroke-73"></path>
                <polyline id="Stroke-75" points="31.3504848 26.2862955 31.3504848 26.2862955 30.9279848 26.2862955"></polyline>
                <path d="M37.9648258,6.27565152 L23.8440682,6.27565152" id="Stroke-77"></path>
                <path d="M32.0810455,3.92215909 L29.7272576,3.92215909" id="Stroke-79"></path>
                <path d="M0.492424242,3.33381061 C0.492424242,2.35979545 1.28325758,1.56896212 2.25727273,1.56896212 L14.0252273,1.56896212 C14.9992424,1.56896212 15.7900758,2.35979545 15.7900758,3.33381061 L15.7900758,26.8687348 C15.7900758,27.8437348 14.9992424,28.6345682 14.0252273,28.6345682 L2.25727273,28.6345682 C1.28325758,28.6345682 0.492424242,27.8437348 0.492424242,26.8687348 L0.492424242,3.33381061 Z" id="Stroke-81"></path>
                <path d="M15.2019242,23.9270909 L1.08116667,23.9270909" id="Stroke-83"></path>
                <polyline id="Stroke-85" points="8.58748485 26.2862955 8.58748485 26.2862955 8.16498485 26.2862955"></polyline>
                <path d="M15.2019242,6.27565152 L1.08116667,6.27565152" id="Stroke-87"></path>
                <path d="M9.31814394,3.92215909 L6.96435606,3.92215909" id="Stroke-89"></path>
                <path d="M101.643159,28.6694318 C97.2458106,28.6694318 93.0670985,22.3624621 93.0670985,14.5811742 C93.0670985,6.80185606 97.2458106,0.491931818 101.643159,0.491931818" id="Stroke-91"></path>
                <path d="M101.643159,20.0938636 C99.2765682,20.0938636 96.742553,17.6248485 96.742553,14.5806818 C96.742553,11.5365152 99.2765682,9.06848485 101.643159,9.06848485" id="Stroke-93"></path>
                <path d="M103.480788,28.6694318 C104.495182,28.6694318 105.660258,27.8470833 105.660258,26.8317045 L105.660258,21.9310985 C105.660258,20.9167045 104.495182,20.0933712 103.480788,20.0933712 L101.985788,20.0933712 L101.985788,28.6694318 L103.480788,28.6694318 Z" id="Stroke-95"></path>
                <path d="M103.480788,9.06799242 C104.495182,9.06799242 105.660258,8.24564394 105.660258,7.23026515 L105.660258,2.32965909 C105.660258,1.31526515 104.495182,0.491931818 103.480788,0.491931818 L101.985788,0.491931818 L101.985788,9.06799242 L103.480788,9.06799242 Z" id="Stroke-97"></path>
            </g>
        </g>
    </g>
</svg>