<svg xmlns="http://www.w3.org/2000/svg" xmlns:xlink="http://www.w3.org/1999/xlink" width="202" height="120" viewBox="0 0 202 120">
    <defs>
        <path id="a" d="M0 120h202V0H0z"/>
    </defs>
    <g fill="none" fill-rule="evenodd">
        <path fill="#9B9B9B" d="M28.737 46.426c0-6.762-4.052-12.481-11.2-12.481-6.853 0-10.904 6.018-10.904 12.481 0 6.538 3.905 12.631 10.904 12.631 7.221 0 11.2-5.796 11.2-12.631zM35 63.812h-6.63V58.39h-.15C25.57 62.325 21.443 65 16.506 65 5.969 65 0 56.159 0 46.204 0 36.695 6.263 28 16.284 28c5.085 0 9.212 2.674 11.937 6.835h.148V29.04H35v34.772z"/>
        <mask id="b" fill="#fff">
            <use xlink:href="#a"/>
        </mask>
        <path fill="#9B9B9B" d="M43 64h7V0h-7zM81.356 42.49c-.812-5.202-4.208-8.695-9.525-8.695-5.166 0-9.005 3.715-9.818 8.695h19.343zm-19.71 5.05c.073 5.944 4.058 11.517 10.407 11.517 5.095 0 7.826-2.6 10.337-6.762L88 55.49C84.752 61.51 78.699 65 71.98 65 61.423 65 55 56.976 55 46.725 55 36.025 60.685 28 71.831 28 82.831 28 88 36.175 88 46.5v1.04H61.645zM91.015 30h7.789l8.16 10.97L115.86 30h8.01l-12.642 15.546L126 64h-7.716l-11.32-13.804L96.014 64H88l15.363-18.454zM164.593 38.755c-1.819 1.015-3.79 4.781-3.83 7.472 1.821-2.365 3.333-4.54 3.83-7.472m17.936-3.123c1.743-1.364 3.494-2.72 5.229-4.095 1.174-.931 2.31-1.244 3.733-.352 1.352.848 1.852 1.956.73 3.055-2.105 2.066-4.374 3.977-6.66 5.852-1.142.936-2.521 1.588-3.692 2.496-.41.316-.717 1.01-.726 1.538-.053 2.848-.598 5.734.488 8.518.135.347.302.681.48 1.083 1.46-1.137 2.839-2.165 4.164-3.256 1.567-1.292 3.089-2.635 4.626-3.96.663-.571 1.48-1.05 1.932-1.755.859-1.34 1.575-.622 2.405-.073.968.64.94 1.507.327 2.236-2.264 2.69-4.58 5.34-6.941 7.946a16.702 16.702 0 0 1-2.733 2.39c-2.325 1.644-4.895 1.828-6.794-.651-.524-.686-1.164-1.29-1.655-1.995-.461-.663-.795-1.41-1.226-2.196-1.975 2.19-3.941 4.246-5.757 6.424a13.488 13.488 0 0 1-4.656 3.614c-2.41 1.145-5.436.462-7.306-1.702-.69-.798-1.19-1.773-1.939-2.504-.398-.388-1.16-.626-1.733-.585-2 .142-4.238-1.02-4.812-2.826-.108-.34.484-.98.878-1.352.18-.169.662-.012 1.007-.022 1.88-.057 3.397-.928 3.113-3.08-.304-2.303.035-4.482 1.004-6.631.76-1.687 1.189-3.517 1.846-5.256.95-2.518 5.896-4.865 8.24-3.982 1.744.658 2.42 2.15 3.04 3.697 1.162 2.886-.055 5.353-1.65 7.575-1.98 2.755-4.225 5.325-6.382 7.953-.97 1.183-.567 3.778.746 4.591 1.11.687 1.815-.165 2.381-.761 2.333-2.46 4.505-5.07 6.857-7.51 1.725-1.79 2.52-4.04 3.51-6.193 1.65-3.598 1.821-7.55 2.538-11.363.664-3.537 1.09-7.118 1.629-10.677.28-1.843.763-2.093 2.55-1.606 3.774 1.03 2.857 1.04 2.623 4.377-.201 2.883-.728 5.744-1.146 8.61-.11.75-.35 1.48-.53 2.217.087.07.174.141.262.21M6.646 88.3h.147c1.921-2.975 5.391-5.3 9.157-5.3 4.506 0 7.755 2.251 9.97 6.028C28.06 85.397 32.197 83 36.555 83 45.637 83 48 89.972 48 97.667V118h-6.646V98.758c0-4.359-.59-9.948-6.423-9.948-7.09 0-7.607 7.26-7.607 12.49V118h-6.647V99.992c0-4.43-.22-11.182-6.351-11.182-7.09 0-7.68 7.188-7.68 12.49V118H0V84.016h6.646v4.285zM81.737 101.426c0-6.762-4.051-12.481-11.2-12.481-6.853 0-10.905 6.018-10.905 12.481 0 6.538 3.906 12.631 10.905 12.631 7.221 0 11.2-5.796 11.2-12.631zM88 118.812h-6.63v-5.423h-.149C78.57 117.325 74.441 120 69.505 120 58.969 120 53 111.159 53 101.204 53 91.695 59.263 83 69.283 83c5.086 0 9.212 2.674 11.938 6.835h.149V84.04H88v34.772zM102.768 88.591h.15c2.104-3.63 6.316-5.591 10.6-5.591C123.442 83 126 89.464 126 97.742V118h-6.768V98.539c0-5.808-.827-9.73-7.744-9.73-8.72 0-8.72 7.408-8.72 13.58V118H96V84.016h6.768v4.575zM136.66 101.5c0 6.538 5.254 12.11 11.84 12.11s11.84-5.572 11.84-12.11c0-6.61-5.254-12.111-11.84-12.111s-11.84 5.5-11.84 12.111m30.34 0c0 10.476-8.14 18.5-18.5 18.5s-18.5-8.024-18.5-18.5c0-10.475 8.14-18.5 18.5-18.5s18.5 8.025 18.5 18.5M178.768 88.591h.15c2.104-3.63 6.316-5.591 10.6-5.591C199.444 83 202 89.464 202 97.742V118h-6.768V98.539c0-5.808-.827-9.73-7.744-9.73-8.72 0-8.72 7.408-8.72 13.58V118H172V84.016h6.768v4.575z" mask="url(#b)"/>
    </g>
</svg>
