<?xml version="1.0" encoding="UTF-8"?>
<svg width="149px" height="66px" viewBox="0 0 149 66" version="1.1" xmlns="http://www.w3.org/2000/svg" xmlns:xlink="http://www.w3.org/1999/xlink">
    <!-- Generator: sketchtool 41 (35326) - http://www.bohemiancoding.com/sketch -->
    <title>3A82C488-7FA9-4E50-9614-F670B8DCEA9D</title>
    <desc>Created with sketchtool.</desc>
    <defs></defs>
    <g id="Page-1" stroke="none" stroke-width="1" fill="none" fill-rule="evenodd">
        <g id="aetm-DIDYOUKNOW-illus" transform="translate(-193.000000, -1115.000000)" stroke="#FEFEFE">
            <g id="DYK-illu6" transform="translate(194.000000, 1115.000000)">
                <path d="M30.9146,65.5 L5.2306,65.5 C2.6286,65.5 0.4996,63.371 0.4996,60.768 L0.4996,5.232 C0.4996,2.629 2.6286,0.5 5.2306,0.5 L30.9146,0.5 C33.5176,0.5 35.6466,2.629 35.6466,5.232 L35.6466,60.768 C35.6466,63.371 33.5176,65.5 30.9146,65.5 Z" id="Stroke-1"></path>
                <path d="M29.4734,56.4611 L6.6724,56.4611 C5.0284,56.4611 3.6834,55.1161 3.6834,53.4711 L3.6834,6.6101 C3.6834,4.9661 5.0284,3.6201 6.6724,3.6201 L29.4734,3.6201 C31.1174,3.6201 32.4634,4.9661 32.4634,6.6101 L32.4634,53.4711 C32.4634,55.1161 31.1174,56.4611 29.4734,56.4611 Z" id="Stroke-3"></path>
                <path d="M12.4736,60.3691 C12.4736,59.9431 12.8206,59.5971 13.2516,59.5971 L23.2826,59.5971 C23.7126,59.5971 24.0616,59.9391 24.0616,60.3691 L24.0616,61.1431 C24.0616,61.5691 23.7146,61.9151 23.2826,61.9151 L13.2516,61.9151 C12.8216,61.9151 12.4736,61.5731 12.4736,61.1431 L12.4736,60.3691 Z" id="Stroke-5"></path>
                <path d="M14.7132,26.0774 L8.9382,26.0774 C8.1612,26.0774 7.5262,25.4414 7.5262,24.6654 L7.5262,18.8904 C7.5262,18.1134 8.1612,17.4774 8.9382,17.4774 L14.7132,17.4774 C15.4902,17.4774 16.1252,18.1134 16.1252,18.8904 L16.1252,24.6654 C16.1252,25.4414 15.4902,26.0774 14.7132,26.0774 Z" id="Stroke-7" stroke-linecap="round" stroke-linejoin="round"></path>
                <path d="M27.5969,26.0774 L21.8219,26.0774 C21.0449,26.0774 20.4099,25.4414 20.4099,24.6654 L20.4099,18.8904 C20.4099,18.1134 21.0449,17.4774 21.8219,17.4774 L27.5969,17.4774 C28.3739,17.4774 29.0089,18.1134 29.0089,18.8904 L29.0089,24.6654 C29.0089,25.4414 28.3739,26.0774 27.5969,26.0774 Z" id="Stroke-9" stroke-linecap="round" stroke-linejoin="round"></path>
                <path d="M14.7132,38.0293 L8.9382,38.0293 C8.1612,38.0293 7.5262,37.3933 7.5262,36.6173 L7.5262,30.8423 C7.5262,30.0653 8.1612,29.4293 8.9382,29.4293 L14.7132,29.4293 C15.4902,29.4293 16.1252,30.0653 16.1252,30.8423 L16.1252,36.6173 C16.1252,37.3933 15.4902,38.0293 14.7132,38.0293 Z" id="Stroke-11" stroke-linecap="round" stroke-linejoin="round"></path>
                <path d="M27.5969,38.0293 L21.8219,38.0293 C21.0449,38.0293 20.4099,37.3933 20.4099,36.6173 L20.4099,30.8423 C20.4099,30.0653 21.0449,29.4293 21.8219,29.4293 L27.5969,29.4293 C28.3739,29.4293 29.0089,30.0653 29.0089,30.8423 L29.0089,36.6173 C29.0089,37.3933 28.3739,38.0293 27.5969,38.0293 Z" id="Stroke-13" stroke-linecap="round" stroke-linejoin="round"></path>
                <path d="M14.7132,50.3872 L8.9382,50.3872 C8.1612,50.3872 7.5262,49.7512 7.5262,48.9752 L7.5262,43.1992 C7.5262,42.4232 8.1612,41.7872 8.9382,41.7872 L14.7132,41.7872 C15.4902,41.7872 16.1252,42.4232 16.1252,43.1992 L16.1252,48.9752 C16.1252,49.7512 15.4902,50.3872 14.7132,50.3872 Z" id="Stroke-15" stroke-linecap="round" stroke-linejoin="round"></path>
                <path d="M27.5969,50.3872 L21.8219,50.3872 C21.0449,50.3872 20.4099,49.7512 20.4099,48.9752 L20.4099,43.1992 C20.4099,42.4232 21.0449,41.7872 21.8219,41.7872 L27.5969,41.7872 C28.3739,41.7872 29.0089,42.4232 29.0089,43.1992 L29.0089,48.9752 C29.0089,49.7512 28.3739,50.3872 27.5969,50.3872 Z" id="Stroke-17" stroke-linecap="round" stroke-linejoin="round"></path>
                <path d="M42.8694,26.0774 L37.0944,26.0774 C36.3174,26.0774 35.6824,25.4414 35.6824,24.6654 L35.6824,18.8904 C35.6824,18.1134 36.3174,17.4774 37.0944,17.4774 L42.8694,17.4774 C43.6464,17.4774 44.2814,18.1134 44.2814,18.8904 L44.2814,24.6654 C44.2814,25.4414 43.6464,26.0774 42.8694,26.0774 Z" id="Stroke-19" stroke-linecap="round" stroke-linejoin="round"></path>
                <path d="M55.7532,26.0774 L49.9782,26.0774 C49.2012,26.0774 48.5662,25.4414 48.5662,24.6654 L48.5662,18.8904 C48.5662,18.1134 49.2012,17.4774 49.9782,17.4774 L55.7532,17.4774 C56.5302,17.4774 57.1652,18.1134 57.1652,18.8904 L57.1652,24.6654 C57.1652,25.4414 56.5302,26.0774 55.7532,26.0774 Z" id="Stroke-21" stroke-linecap="round" stroke-linejoin="round" opacity="0.8"></path>
                <path d="M42.8694,38.0293 L37.0944,38.0293 C36.3174,38.0293 35.6824,37.3933 35.6824,36.6173 L35.6824,30.8423 C35.6824,30.0653 36.3174,29.4293 37.0944,29.4293 L42.8694,29.4293 C43.6464,29.4293 44.2814,30.0653 44.2814,30.8423 L44.2814,36.6173 C44.2814,37.3933 43.6464,38.0293 42.8694,38.0293 Z" id="Stroke-23" stroke-linecap="round" stroke-linejoin="round"></path>
                <path d="M55.7532,38.0293 L49.9782,38.0293 C49.2012,38.0293 48.5662,37.3933 48.5662,36.6173 L48.5662,30.8423 C48.5662,30.0653 49.2012,29.4293 49.9782,29.4293 L55.7532,29.4293 C56.5302,29.4293 57.1652,30.0653 57.1652,30.8423 L57.1652,36.6173 C57.1652,37.3933 56.5302,38.0293 55.7532,38.0293 Z" id="Stroke-25" stroke-linecap="round" stroke-linejoin="round" opacity="0.8"></path>
                <path d="M42.8694,50.3872 L37.0944,50.3872 C36.3174,50.3872 35.6824,49.7512 35.6824,48.9752 L35.6824,43.1992 C35.6824,42.4232 36.3174,41.7872 37.0944,41.7872 L42.8694,41.7872 C43.6464,41.7872 44.2814,42.4232 44.2814,43.1992 L44.2814,48.9752 C44.2814,49.7512 43.6464,50.3872 42.8694,50.3872 Z" id="Stroke-27" stroke-linecap="round" stroke-linejoin="round"></path>
                <path d="M55.7532,50.3872 L49.9782,50.3872 C49.2012,50.3872 48.5662,49.7512 48.5662,48.9752 L48.5662,43.1992 C48.5662,42.4232 49.2012,41.7872 49.9782,41.7872 L55.7532,41.7872 C56.5302,41.7872 57.1652,42.4232 57.1652,43.1992 L57.1652,48.9752 C57.1652,49.7512 56.5302,50.3872 55.7532,50.3872 Z" id="Stroke-29" stroke-linecap="round" stroke-linejoin="round" opacity="0.8"></path>
                <path d="M68.5683,26.0774 L62.7933,26.0774 C62.0163,26.0774 61.3803,25.4414 61.3803,24.6654 L61.3803,18.8904 C61.3803,18.1134 62.0163,17.4774 62.7933,17.4774 L68.5683,17.4774 C69.3453,17.4774 69.9803,18.1134 69.9803,18.8904 L69.9803,24.6654 C69.9803,25.4414 69.3453,26.0774 68.5683,26.0774 Z" id="Stroke-31" stroke-linecap="round" stroke-linejoin="round" opacity="0.6"></path>
                <path d="M68.5683,38.0293 L62.7933,38.0293 C62.0163,38.0293 61.3803,37.3933 61.3803,36.6173 L61.3803,30.8423 C61.3803,30.0653 62.0163,29.4293 62.7933,29.4293 L68.5683,29.4293 C69.3453,29.4293 69.9803,30.0653 69.9803,30.8423 L69.9803,36.6173 C69.9803,37.3933 69.3453,38.0293 68.5683,38.0293 Z" id="Stroke-33" stroke-linecap="round" stroke-linejoin="round" opacity="0.6"></path>
                <path d="M68.5683,50.3872 L62.7933,50.3872 C62.0163,50.3872 61.3803,49.7512 61.3803,48.9752 L61.3803,43.1992 C61.3803,42.4232 62.0163,41.7872 62.7933,41.7872 L68.5683,41.7872 C69.3453,41.7872 69.9803,42.4232 69.9803,43.1992 L69.9803,48.9752 C69.9803,49.7512 69.3453,50.3872 68.5683,50.3872 Z" id="Stroke-35" stroke-linecap="round" stroke-linejoin="round" opacity="0.6"></path>
                <path d="M81.1958,26.0774 L75.4208,26.0774 C74.6438,26.0774 74.0088,25.4414 74.0088,24.6654 L74.0088,18.8904 C74.0088,18.1134 74.6438,17.4774 75.4208,17.4774 L81.1958,17.4774 C81.9728,17.4774 82.6078,18.1134 82.6078,18.8904 L82.6078,24.6654 C82.6078,25.4414 81.9728,26.0774 81.1958,26.0774 Z" id="Stroke-37" stroke-linecap="round" stroke-linejoin="round" opacity="0.5"></path>
                <path d="M94.0796,26.0774 L88.3046,26.0774 C87.5276,26.0774 86.8926,25.4414 86.8926,24.6654 L86.8926,18.8904 C86.8926,18.1134 87.5276,17.4774 88.3046,17.4774 L94.0796,17.4774 C94.8566,17.4774 95.4916,18.1134 95.4916,18.8904 L95.4916,24.6654 C95.4916,25.4414 94.8566,26.0774 94.0796,26.0774 Z" id="Stroke-39" stroke-linecap="round" stroke-linejoin="round" opacity="0.4"></path>
                <path d="M81.1958,38.0293 L75.4208,38.0293 C74.6438,38.0293 74.0088,37.3933 74.0088,36.6173 L74.0088,30.8423 C74.0088,30.0653 74.6438,29.4293 75.4208,29.4293 L81.1958,29.4293 C81.9728,29.4293 82.6078,30.0653 82.6078,30.8423 L82.6078,36.6173 C82.6078,37.3933 81.9728,38.0293 81.1958,38.0293 Z" id="Stroke-41" stroke-linecap="round" stroke-linejoin="round" opacity="0.5"></path>
                <path d="M94.0796,38.0293 L88.3046,38.0293 C87.5276,38.0293 86.8926,37.3933 86.8926,36.6173 L86.8926,30.8423 C86.8926,30.0653 87.5276,29.4293 88.3046,29.4293 L94.0796,29.4293 C94.8566,29.4293 95.4916,30.0653 95.4916,30.8423 L95.4916,36.6173 C95.4916,37.3933 94.8566,38.0293 94.0796,38.0293 Z" id="Stroke-43" stroke-linecap="round" stroke-linejoin="round" opacity="0.4"></path>
                <path d="M81.1958,50.3872 L75.4208,50.3872 C74.6438,50.3872 74.0088,49.7512 74.0088,48.9752 L74.0088,43.1992 C74.0088,42.4232 74.6438,41.7872 75.4208,41.7872 L81.1958,41.7872 C81.9728,41.7872 82.6078,42.4232 82.6078,43.1992 L82.6078,48.9752 C82.6078,49.7512 81.9728,50.3872 81.1958,50.3872 Z" id="Stroke-45" stroke-linecap="round" stroke-linejoin="round" opacity="0.5"></path>
                <path d="M94.0796,50.3872 L88.3046,50.3872 C87.5276,50.3872 86.8926,49.7512 86.8926,48.9752 L86.8926,43.1992 C86.8926,42.4232 87.5276,41.7872 88.3046,41.7872 L94.0796,41.7872 C94.8566,41.7872 95.4916,42.4232 95.4916,43.1992 L95.4916,48.9752 C95.4916,49.7512 94.8566,50.3872 94.0796,50.3872 Z" id="Stroke-47" stroke-linecap="round" stroke-linejoin="round" opacity="0.4"></path>
                <path d="M106.8948,26.0774 L101.1198,26.0774 C100.3428,26.0774 99.7078,25.4414 99.7078,24.6654 L99.7078,18.8904 C99.7078,18.1134 100.3428,17.4774 101.1198,17.4774 L106.8948,17.4774 C107.6718,17.4774 108.3068,18.1134 108.3068,18.8904 L108.3068,24.6654 C108.3068,25.4414 107.6718,26.0774 106.8948,26.0774 Z" id="Stroke-49" stroke-linecap="round" stroke-linejoin="round" opacity="0.3"></path>
                <path d="M106.8948,38.0293 L101.1198,38.0293 C100.3428,38.0293 99.7078,37.3933 99.7078,36.6173 L99.7078,30.8423 C99.7078,30.0653 100.3428,29.4293 101.1198,29.4293 L106.8948,29.4293 C107.6718,29.4293 108.3068,30.0653 108.3068,30.8423 L108.3068,36.6173 C108.3068,37.3933 107.6718,38.0293 106.8948,38.0293 Z" id="Stroke-51" stroke-linecap="round" stroke-linejoin="round" opacity="0.3"></path>
                <path d="M106.8948,50.3872 L101.1198,50.3872 C100.3428,50.3872 99.7078,49.7512 99.7078,48.9752 L99.7078,43.1992 C99.7078,42.4232 100.3428,41.7872 101.1198,41.7872 L106.8948,41.7872 C107.6718,41.7872 108.3068,42.4232 108.3068,43.1992 L108.3068,48.9752 C108.3068,49.7512 107.6718,50.3872 106.8948,50.3872 Z" id="Stroke-53" stroke-linecap="round" stroke-linejoin="round" opacity="0.3"></path>
                <path d="M119.5223,26.0774 L113.7473,26.0774 C112.9703,26.0774 112.3343,25.4414 112.3343,24.6654 L112.3343,18.8904 C112.3343,18.1134 112.9703,17.4774 113.7473,17.4774 L119.5223,17.4774 C120.2993,17.4774 120.9343,18.1134 120.9343,18.8904 L120.9343,24.6654 C120.9343,25.4414 120.2993,26.0774 119.5223,26.0774 Z" id="Stroke-55" stroke-linecap="round" stroke-linejoin="round" opacity="0.2"></path>
                <path d="M132.4061,26.0774 L126.6311,26.0774 C125.8541,26.0774 125.2191,25.4414 125.2191,24.6654 L125.2191,18.8904 C125.2191,18.1134 125.8541,17.4774 126.6311,17.4774 L132.4061,17.4774 C133.1831,17.4774 133.8181,18.1134 133.8181,18.8904 L133.8181,24.6654 C133.8181,25.4414 133.1831,26.0774 132.4061,26.0774 Z" id="Stroke-57" stroke-linecap="round" stroke-linejoin="round" opacity="0.15"></path>
                <path d="M119.5223,38.0293 L113.7473,38.0293 C112.9703,38.0293 112.3343,37.3933 112.3343,36.6173 L112.3343,30.8423 C112.3343,30.0653 112.9703,29.4293 113.7473,29.4293 L119.5223,29.4293 C120.2993,29.4293 120.9343,30.0653 120.9343,30.8423 L120.9343,36.6173 C120.9343,37.3933 120.2993,38.0293 119.5223,38.0293 Z" id="Stroke-59" stroke-linecap="round" stroke-linejoin="round" opacity="0.2"></path>
                <path d="M132.4061,38.0293 L126.6311,38.0293 C125.8541,38.0293 125.2191,37.3933 125.2191,36.6173 L125.2191,30.8423 C125.2191,30.0653 125.8541,29.4293 126.6311,29.4293 L132.4061,29.4293 C133.1831,29.4293 133.8181,30.0653 133.8181,30.8423 L133.8181,36.6173 C133.8181,37.3933 133.1831,38.0293 132.4061,38.0293 Z" id="Stroke-61" stroke-linecap="round" stroke-linejoin="round" opacity="0.15"></path>
                <path d="M119.5223,50.3872 L113.7473,50.3872 C112.9703,50.3872 112.3343,49.7512 112.3343,48.9752 L112.3343,43.1992 C112.3343,42.4232 112.9703,41.7872 113.7473,41.7872 L119.5223,41.7872 C120.2993,41.7872 120.9343,42.4232 120.9343,43.1992 L120.9343,48.9752 C120.9343,49.7512 120.2993,50.3872 119.5223,50.3872 Z" id="Stroke-63" stroke-linecap="round" stroke-linejoin="round" opacity="0.2"></path>
                <path d="M132.4061,50.3872 L126.6311,50.3872 C125.8541,50.3872 125.2191,49.7512 125.2191,48.9752 L125.2191,43.1992 C125.2191,42.4232 125.8541,41.7872 126.6311,41.7872 L132.4061,41.7872 C133.1831,41.7872 133.8181,42.4232 133.8181,43.1992 L133.8181,48.9752 C133.8181,49.7512 133.1831,50.3872 132.4061,50.3872 Z" id="Stroke-65" stroke-linecap="round" stroke-linejoin="round" opacity="0.15"></path>
                <path d="M145.2212,26.0774 L139.4462,26.0774 C138.6692,26.0774 138.0342,25.4414 138.0342,24.6654 L138.0342,18.8904 C138.0342,18.1134 138.6692,17.4774 139.4462,17.4774 L145.2212,17.4774 C145.9982,17.4774 146.6332,18.1134 146.6332,18.8904 L146.6332,24.6654 C146.6332,25.4414 145.9982,26.0774 145.2212,26.0774 Z" id="Stroke-67" stroke-linecap="round" stroke-linejoin="round" opacity="0.0971467391"></path>
                <path d="M145.2212,38.0293 L139.4462,38.0293 C138.6692,38.0293 138.0342,37.3933 138.0342,36.6173 L138.0342,30.8423 C138.0342,30.0653 138.6692,29.4293 139.4462,29.4293 L145.2212,29.4293 C145.9982,29.4293 146.6332,30.0653 146.6332,30.8423 L146.6332,36.6173 C146.6332,37.3933 145.9982,38.0293 145.2212,38.0293 Z" id="Stroke-69" stroke-linecap="round" stroke-linejoin="round" opacity="0.0971467391"></path>
                <path d="M145.2212,50.3872 L139.4462,50.3872 C138.6692,50.3872 138.0342,49.7512 138.0342,48.9752 L138.0342,43.1992 C138.0342,42.4232 138.6692,41.7872 139.4462,41.7872 L145.2212,41.7872 C145.9982,41.7872 146.6332,42.4232 146.6332,43.1992 L146.6332,48.9752 C146.6332,49.7512 145.9982,50.3872 145.2212,50.3872 Z" id="Stroke-71" stroke-linecap="round" stroke-linejoin="round" opacity="0.0971467391"></path>
            </g>
        </g>
    </g>
</svg>