<?xml version="1.0" encoding="UTF-8"?>
<svg width="58px" height="137px" viewBox="0 0 58 137" version="1.1" xmlns="http://www.w3.org/2000/svg" xmlns:xlink="http://www.w3.org/1999/xlink">
    <!-- Generator: sketchtool 41 (35326) - http://www.bohemiancoding.com/sketch -->
    <title>D77EAB85-C6A1-4C98-8808-D9A1D1486B58</title>
    <desc>Created with sketchtool.</desc>
    <defs></defs>
    <g id="Page-1" stroke="none" stroke-width="1" fill="none" fill-rule="evenodd">
        <g id="aetm-web-home" transform="translate(-674.000000, -404.000000)" stroke="#F46F7C">
            <g id="home-copy" transform="translate(400.000000, -1.000000)">
                <g id="fleche-telephone" transform="translate(275.000000, 406.000000)">
                    <g id="Page-1">
                        <path d="M48.4608757,104 L7.53789344,104 C3.39229822,104 0,100.593528 0,96.4293745 L0,7.5706255 C0,3.40647247 3.39229822,0 7.53789344,0 L48.4608757,0 C52.6077018,0 56,3.40647247 56,7.5706255 L56,96.4293745 C56,100.593528 52.6077018,104 48.4608757,104 Z" id="Stroke-1" fill="#FFFFFF"></path>
                        <path d="M46.221581,89 L9.778419,89 C7.14967119,89 5,86.8619611 5,84.2474379 L5,9.7525621 C5,7.13926697 7.14967119,5 9.778419,5 L46.221581,5 C48.8490941,5 51,7.13926697 51,9.7525621 L51,84.2474379 C51,86.8619611 48.8490941,89 46.221581,89 Z" id="Stroke-3"></path>
                        <path d="M31,96 C31,97.6562627 29.6572066,99 27.9993919,99 C26.3427934,99 25,97.6562627 25,96 C25,94.3437373 26.3427934,93 27.9993919,93 C29.6572066,93 31,94.3437373 31,96 Z" id="Stroke-5"></path>
                    </g>
                    <g id="Group" transform="translate(15.000000, 104.000000)">
                        <g id="Group-2">
                            <g id="Group-4">
                                <g id="Page-1" transform="translate(0.000000, 19.000000)">
                                    <polyline id="Stroke-4" points="26 0 12.9722255 12 0 0.0513724503"></polyline>
                                </g>
                                <path d="M13,30.2619048 L13,0.738095238" id="Line" stroke-linecap="square"></path>
                            </g>
                        </g>
                    </g>
                </g>
            </g>
        </g>
    </g>
</svg>