<svg xmlns="http://www.w3.org/2000/svg" xmlns:xlink="http://www.w3.org/1999/xlink" width="27" height="27" viewBox="0 0 27 27">
    <defs>
        <path id="a" d="M0 0h26.978v26.996H0z"/>
    </defs>
    <g fill="none" fill-rule="evenodd">
        <mask id="b" fill="#fff">
            <use xlink:href="#a"/>
        </mask>
        <path fill="#FFDD5E" d="M6.203 17.111c1.244-2.269 2.097-4.372 1.592-6.945-1.208 1.862-1.91 4.854-1.592 6.945m13.188-7.874c1.103-1.154 2.203-2.312 3.31-3.461.412-.429.816-.871 1.271-1.253.878-.739 2.593-.247 2.818.854.087.424-.046 1.058-.329 1.367-2.022 2.209-4.03 4.44-6.205 6.492-1.068 1.006-1.548 2.106-1.442 3.446.103 1.29.396 2.571.69 3.835.107.461.538.818.991.31 1.564-1.748 3.246-3.404 4.416-5.471.04-.069.044-.157.065-.237.162.074.3.192.44.192.422 0 .921-.192 1.243-.024.233.121.335.699.317 1.065-.065 1.303-.735 2.412-1.474 3.399-1.04 1.388-2.189 2.722-3.448 3.913-.908.857-2.14.694-3.152.074-.835-.512-1.534-1.247-2.216-1.817-.597.843-1.23 1.853-1.98 2.768-1.225 1.494-2.775 2.476-4.783 2.283-1.96-.189-3.554-1.188-4.67-2.779-.449-.638-.807-.772-1.51-.602-1.364.331-3.38-.874-3.743-2.287.737 0 1.442.031 2.143-.006 1.132-.061 1.285-.487 1.172-1.545-.182-1.717-.203-3.461-.157-5.19.03-1.151.158-2.337.487-3.433.426-1.423 1.025-2.814 2.46-3.6.924-.507 2.492-.216 3.191.548 1.053 1.152 1.761 2.49 1.81 4.023.034 1.045-.239 2.122-.513 3.149-.6 2.247-1.719 4.23-3.235 6.003-.177.208-.213.733-.075.977.285.508.663 1.013 1.122 1.363 1.274.976 2.202.767 3.437-.872 1.064-1.413 2.157-2.818 2.481-4.669.182-1.039.761-2.008.948-3.047.203-1.131.155-2.306.227-3.461.086-1.364.252-2.726.261-4.089.01-1.698-.1-3.396-.166-5.093-.02-.529-.096-1.059-.087-1.587.01-.592 1.02-.952 1.858-.686C18.6.48 18.855.95 18.908 2.263c.056 1.389.323 2.768.392 4.157.045.893-.103 1.795-.164 2.694l.255.123" mask="url(#b)"/>
    </g>
</svg>
